<svg width="24" height="18" viewBox="0 0 24 18" fill="none" xmlns="http://www.w3.org/2000/svg">
<path d="M23.1906 3.37802C22.922 2.37301 22.1306 1.58161 21.1256 1.31301C19.3041 0.824883 12 0.824883 12 0.824883C12 0.824883 4.69594 0.824883 2.8744 1.31301C1.86946 1.58161 1.07796 2.37301 0.80937 3.37802C0.321289 5.19952 0.321289 8.99998 0.321289 8.99998C0.321289 8.99998 0.321289 12.8004 0.80937 14.6221C1.07796 15.627 1.86946 16.4183 2.8744 16.6871C4.69594 17.1751 12 17.1751 12 17.1751C12 17.1751 19.3041 17.1751 21.1256 16.6871C22.1306 16.4183 22.922 15.627 23.1906 14.6221C23.6787 12.8004 23.6787 8.99998 23.6787 8.99998C23.6787 8.99998 23.6787 5.19952 23.1906 3.37802Z" fill="#2CE5A7"/>
<path d="M9.6123 12.4514L15.7171 9.00109L9.6123 5.55041V12.4514Z" fill="#262C3A"/>
</svg>
