<svg width="20" height="33" viewBox="0 0 20 33" fill="none" xmlns="http://www.w3.org/2000/svg">
<path d="M13.6754 32.6723C13.1294 32.6723 12.6885 32.2333 12.6885 31.6893V31.3617L12.3596 31.2961H11.3596V31.6238C11.3596 32.2267 10.9122 32.6723 10.3661 32.6723H9.84634C9.30026 32.6723 8.85287 32.2267 8.85287 31.6828V31.3551L8.52391 31.2961H7.43177V31.6238C7.43177 32.2267 6.98438 32.6723 6.43831 32.6723H5.91198C5.36591 32.6723 4.9251 32.2267 4.9251 31.6828V31.1716C4.9251 30.3066 4.2935 29.4415 3.33951 28.4127C3.18819 28.2619 3.04344 28.1112 2.91186 27.9605L2.87897 27.9277C2.61581 27.6263 2.3658 27.3051 2.14868 26.984L2.06315 26.853L2.04999 26.8202C1.47102 25.9158 1.04995 24.9459 0.80652 23.9236C-1.50278 16.1185 5.01063 10.5613 9.19499 7.90718C8.66208 8.84431 8.26075 10.1812 8.85287 11.6623L9.05684 12.18L9.41211 11.754C13.4517 6.8783 11.4451 2.67104 9.68843 0.429794C10.9648 1.38659 11.9846 2.46134 12.7214 3.6475L12.7741 3.73269C14.0899 6.39335 13.7346 9.10645 13.4254 11.505C13.103 13.969 12.807 16.2955 14.5044 17.888L14.9847 18.3401L15.0044 18.1304C15.136 18.1697 15.2742 18.1894 15.4123 18.1894C15.715 18.1894 16.0045 18.0977 16.2545 17.9207C16.3466 17.8552 16.4124 17.7962 16.4716 17.7372C16.7413 17.4358 16.8795 17.095 16.8861 16.7346C16.8729 16.3938 16.7413 16.0727 16.5045 15.7516L16.3795 15.5877C15.34 14.1722 14.761 13.3989 15.8005 10.5875C15.9058 10.1353 16.09 9.67659 16.3532 9.19164C16.1689 9.86008 16.09 10.5482 16.215 11.2494C16.3861 12.0358 16.7545 12.6387 17.1427 13.2875C17.2414 13.4513 17.3466 13.6217 17.4519 13.8052C18.7611 15.8695 19.4651 18.4253 19.5638 21.4202V21.6496C19.5638 24.2709 18.5572 26.6695 16.715 28.4716C15.8137 29.4546 15.215 30.2738 15.1821 31.1061V31.6893C15.1821 32.2333 14.7413 32.6723 14.1952 32.6723H13.6623H13.6754ZM6.83964 21.512C4.86588 21.512 3.26056 23.111 3.26056 25.077C3.26056 27.043 4.86588 28.642 6.83964 28.642C8.8134 28.642 10.4187 27.043 10.4187 25.077C10.4187 23.111 8.8134 21.512 6.83964 21.512ZM13.4583 22.318C11.9319 22.318 10.6885 23.5566 10.6885 25.077C10.6885 26.5974 11.9319 27.836 13.4583 27.836C14.9847 27.836 16.2282 26.5974 16.2282 25.077C16.2282 23.5566 14.9847 22.318 13.4583 22.318Z" fill="url(#paint0_linear_398_88)"/>
<defs>
<linearGradient id="paint0_linear_398_88" x1="0.326239" y1="16.5511" x2="19.5835" y2="16.5511" gradientUnits="userSpaceOnUse">
<stop stop-color="#2386A7"/>
<stop offset="0.23" stop-color="#30B7CA"/>
<stop offset="0.444444" stop-color="#38D5E0"/>
<stop offset="0.512152" stop-color="#3BE1E9"/>
<stop offset="1" stop-color="#3BE1E9"/>
</linearGradient>
</defs>
</svg>
